<svg
  viewBox="0 0 120 60"
  fill="none"
  xmlns="http://www.w3.org/2000/svg"
>
  <defs>
    <linearGradient id="watercolorDark1" x1="0%" y1="0%" x2="100%" y2="100%">
      <stop offset="0%" stopColor="#ff8a95" stopOpacity="0.9" />
      <stop offset="50%" stopColor="#5febe2" stopOpacity="0.8" />
      <stop offset="100%" stopColor="#66c7f4" stopOpacity="0.9" />
    </linearGradient>
    <linearGradient id="watercolorDark2" x1="0%" y1="0%" x2="100%" y2="100%">
      <stop offset="0%" stopColor="#a8d8c8" stopOpacity="0.8" />
      <stop offset="50%" stopColor="#fed66f" stopOpacity="0.9" />
      <stop offset="100%" stopColor="#ffb3f6" stopOpacity="0.8" />
    </linearGradient>
    <filter id="blurDark">
      <feGaussianBlur in="SourceGraphic" stdDeviation="0.5" />
    </filter>
    <filter id="glow">
      <feGaussianBlur stdDeviation="1" result="coloredBlur"/>
      <feMerge> 
        <feMergeNode in="coloredBlur"/>
        <feMergeNode in="SourceGraphic"/>
      </feMerge>
    </filter>
  </defs>
  
  <ellipse cx="25" cy="35" rx="18" ry="15" fill="url(#watercolorDark1)" filter="url(#blurDark)" opacity="0.7" />
  <ellipse cx="70" cy="25" rx="15" ry="20" fill="url(#watercolorDark2)" filter="url(#blurDark)" opacity="0.6" />
  <ellipse cx="85" cy="45" rx="12" ry="10" fill="url(#watercolorDark1)" filter="url(#blurDark)" opacity="0.5" />
  
  <path
    d="M15 45 L15 15 L25 15 L35 35 L45 15 L55 15 L55 45 L47 45 L47 28 L40 40 L30 40 L23 28 L23 45 Z"
    fill="#f8fafc"
    stroke="#e2e8f0"
    strokeWidth="1"
    filter="url(#glow)"
  />
  
  <path
    d="M65 45 L70 15 L80 15 L85 45 L77 45 L76 38 L74 38 L73 45 Z M74.5 30 L75.5 30 L76 25 L74 25 Z"
    fill="#f8fafc"
    stroke="#e2e8f0"
    strokeWidth="1"
    filter="url(#glow)"
  />
  
  <circle cx="40" cy="20" r="3" fill="#ff8a95" opacity="0.8" />
  <circle cx="90" cy="30" r="2" fill="#5febe2" opacity="0.9" />
  <circle cx="20" cy="50" r="2.5" fill="#fed66f" opacity="0.7" />
</svg>